<?xml version="1.0" encoding="UTF-8" standalone="no"?>
<!-- Created with Inkscape (http://www.inkscape.org/) -->

<svg
   width="63.934082mm"
   height="88.839897mm"
   viewBox="0 0 63.934082 88.839897"
   version="1.1"
   id="svg1"
   xml:space="preserve"
   inkscape:version="1.3.2 (091e20e, 2023-11-25, custom)"
   sodipodi:docname="aichef-logo.svg"
   xmlns:inkscape="http://www.inkscape.org/namespaces/inkscape"
   xmlns:sodipodi="http://sodipodi.sourceforge.net/DTD/sodipodi-0.dtd"
   xmlns="http://www.w3.org/2000/svg"
   xmlns:svg="http://www.w3.org/2000/svg"><sodipodi:namedview
     id="namedview1"
     pagecolor="#505050"
     bordercolor="#eeeeee"
     borderopacity="1"
     inkscape:showpageshadow="0"
     inkscape:pageopacity="0"
     inkscape:pagecheckerboard="0"
     inkscape:deskcolor="#505050"
     inkscape:document-units="mm"
     inkscape:zoom="1.3843855"
     inkscape:cx="3.2505396"
     inkscape:cy="120.99231"
     inkscape:window-width="1920"
     inkscape:window-height="991"
     inkscape:window-x="-9"
     inkscape:window-y="-9"
     inkscape:window-maximized="1"
     inkscape:current-layer="layer3" /><defs
     id="defs1" /><g
     inkscape:label="bg"
     inkscape:groupmode="layer"
     id="layer1"
     style="display:inline"
     transform="translate(-68.537798,-49.235616)" /><g
     inkscape:groupmode="layer"
     id="layer6"
     inkscape:label="head"
     transform="translate(-68.537798,-49.235616)"><rect
       style="fill:#048389;stroke:none;stroke-width:0.720946;fill-opacity:1"
       id="rect1-1"
       width="28.88051"
       height="29.549429"
       x="85.802017"
       y="80.216301"
       ry="1.7660106e-05" /></g><g
     inkscape:groupmode="layer"
     id="layer7"
     inkscape:label="hat"
     transform="translate(-68.537798,-49.235616)"><rect
       style="fill:#048389;stroke:none;stroke-width:0.524767;fill-opacity:1"
       id="rect1"
       width="29.076687"
       height="15.550268"
       x="85.703926"
       y="62.344254"
       ry="9.2935588e-06" /><ellipse
       style="fill:#048389;fill-opacity:1;stroke:none;stroke-width:0.264583"
       id="path6-5"
       cx="88.595016"
       cy="58.516495"
       rx="7.5341678"
       ry="7.5679536" /><ellipse
       style="fill:#048389;fill-opacity:1;stroke:none;stroke-width:0.264583"
       id="path6-0"
       cx="111.6984"
       cy="58.516495"
       rx="7.5341678"
       ry="7.5679536" /><ellipse
       style="fill:#048389;fill-opacity:1;stroke:none;stroke-width:0.264583"
       id="path6-0-6"
       cx="100.24227"
       cy="56.80357"
       rx="7.5341678"
       ry="7.5679536" /></g><g
     inkscape:groupmode="layer"
     id="layer4"
     inkscape:label="ears"
     transform="translate(-68.537798,-49.235616)"><rect
       style="fill:#048389;stroke:none;stroke-width:0.130596;fill-opacity:1"
       id="rect1-1-6-8"
       width="3.8608203"
       height="7.2531953"
       x="79.317551"
       y="92.176735"
       ry="4.334845e-06" /><rect
       style="fill:#048389;stroke:none;stroke-width:0.130596;fill-opacity:1"
       id="rect1-1-6-8-4"
       width="3.8608203"
       height="7.2531953"
       x="117.70068"
       y="92.176735"
       ry="4.334845e-06" /></g><g
     inkscape:groupmode="layer"
     id="layer3"
     inkscape:label="eyes"
     transform="translate(-68.537798,-49.235616)"><rect
       style="fill:#a0cec7;fill-opacity:1;stroke:none;stroke-width:0.151915"
       id="rect1-1-6"
       width="6.0373778"
       height="6.276278"
       x="104.25528"
       y="86.824448"
       ry="3.750994e-06" /><rect
       style="fill:#a0cec7;fill-opacity:1;stroke:none;stroke-width:0.151915"
       id="rect1-1-6-0"
       width="6.0373778"
       height="6.276278"
       x="90.586395"
       y="86.824448"
       ry="3.750994e-06" /></g><g
     inkscape:groupmode="layer"
     id="layer2"
     inkscape:label="body"
     style="display:inline"
     transform="translate(-68.537798,-49.235616)"><path
       style="display:inline;fill:#048389;fill-opacity:1;stroke:none;stroke-width:0.262753"
       d="m 68.571187,113.30315 16.705578,0.005 15.067855,14.79374 14.7294,-14.80067 17.39687,0.007 9.9e-4,24.76729 -63.934082,-1e-5 z"
       id="path1"
       sodipodi:nodetypes="cccccccc" /></g><g
     inkscape:groupmode="layer"
     id="layer5"
     inkscape:label="collar"
     style="fill:#000000;fill-opacity:0"
     transform="translate(-68.537798,-49.235616)"><path
       id="rect2"
       style="fill:#a0cec7;fill-opacity:1;stroke-width:0.18451"
       d="m 115.07402,113.30122 5.38564,5.13123 v 0 l -1.45953,1.37616 c -0.004,0.0108 -5.24113,-5.18601 -5.25512,-5.17195 z"
       sodipodi:nodetypes="cccccc" /><path
       id="rect3"
       style="fill:#a0cec7;fill-opacity:1;stroke-width:0.192729"
       d="m 118.16734,117.85289 c 0,1e-5 1.56255,1.26764 1.56255,1.26764 -5.11782,5.02414 -14.01067,14.19326 -14.01058,14.19737 7.4e-4,0.0327 -0.0149,-3.19949 -0.0149,-3.19949 l 12.32809,-12.40912 z"
       sodipodi:nodetypes="cssccc" /><path
       id="rect2-3"
       style="fill:#a0cec7;fill-opacity:1;stroke-width:0.18451"
       d="m 85.276765,113.30815 -5.40253,5.29487 v 0 l 1.45953,1.37616 c 0.004,0.0108 5.38241,-5.25781 5.388529,-5.2518 z"
       sodipodi:nodetypes="cccccc" /><ellipse
       style="fill:#a0cec7;fill-opacity:1;stroke:none;stroke-width:0.290291"
       id="path3"
       cx="100.33591"
       cy="133.11543"
       rx="2.6620059"
       ry="2.6020188" /><path
       id="rect3-5"
       style="fill:#a0cec7;fill-opacity:1;stroke-width:0.192729"
       d="m 82.166555,118.02346 c 0,1e-5 -1.56255,1.26764 -1.56255,1.26764 5.11782,5.02414 14.01067,14.19326 14.01058,14.19737 -7.4e-4,0.0327 0.0149,-3.19949 0.0149,-3.19949 l -12.32809,-12.40912 z"
       sodipodi:nodetypes="cssccc" /></g></svg>
